<mxfile host="app.diagrams.net" modified="2022-10-06T16:46:23.857Z" agent="5.0 (Windows NT 10.0; Win64; x64) AppleWebKit/537.36 (KHTML, like Gecko) Chrome/105.0.0.0 Safari/537.36 Edg/105.0.1343.53" etag="KlSZ8s46_xqxf8agbYis" version="20.4.0" type="github">
  <diagram id="ro5mqlt8KnanpAY2gumK" name="Page-1">
    <mxGraphModel dx="555" dy="748" grid="1" gridSize="10" guides="1" tooltips="1" connect="1" arrows="1" fold="1" page="1" pageScale="1" pageWidth="3300" pageHeight="4681" math="0" shadow="0">
      <root>
        <mxCell id="0" />
        <mxCell id="1" parent="0" />
        <mxCell id="9jsHnKphA8V8J0PKwrs7-3" value="" style="edgeStyle=orthogonalEdgeStyle;rounded=0;orthogonalLoop=1;jettySize=auto;html=1;" edge="1" parent="1" source="9jsHnKphA8V8J0PKwrs7-1" target="9jsHnKphA8V8J0PKwrs7-2">
          <mxGeometry relative="1" as="geometry" />
        </mxCell>
        <mxCell id="9jsHnKphA8V8J0PKwrs7-1" value="" style="ellipse;whiteSpace=wrap;html=1;aspect=fixed;fillColor=#000000;" vertex="1" parent="1">
          <mxGeometry x="240" y="90" width="30" height="30" as="geometry" />
        </mxCell>
        <mxCell id="9jsHnKphA8V8J0PKwrs7-5" value="" style="edgeStyle=orthogonalEdgeStyle;rounded=0;orthogonalLoop=1;jettySize=auto;html=1;" edge="1" parent="1" source="9jsHnKphA8V8J0PKwrs7-2" target="9jsHnKphA8V8J0PKwrs7-4">
          <mxGeometry relative="1" as="geometry" />
        </mxCell>
        <mxCell id="9jsHnKphA8V8J0PKwrs7-2" value="Login to System" style="rounded=1;whiteSpace=wrap;html=1;fillColor=#FFFFFF;arcSize=50;" vertex="1" parent="1">
          <mxGeometry x="187.5" y="160" width="135" height="40" as="geometry" />
        </mxCell>
        <mxCell id="9jsHnKphA8V8J0PKwrs7-6" style="edgeStyle=orthogonalEdgeStyle;rounded=0;orthogonalLoop=1;jettySize=auto;html=1;exitX=1;exitY=0.5;exitDx=0;exitDy=0;entryX=1;entryY=0.5;entryDx=0;entryDy=0;" edge="1" parent="1" source="9jsHnKphA8V8J0PKwrs7-4" target="9jsHnKphA8V8J0PKwrs7-2">
          <mxGeometry relative="1" as="geometry">
            <Array as="points">
              <mxPoint x="360" y="250" />
              <mxPoint x="360" y="180" />
            </Array>
          </mxGeometry>
        </mxCell>
        <mxCell id="9jsHnKphA8V8J0PKwrs7-8" value="" style="edgeStyle=orthogonalEdgeStyle;rounded=0;orthogonalLoop=1;jettySize=auto;html=1;" edge="1" parent="1" source="9jsHnKphA8V8J0PKwrs7-4" target="9jsHnKphA8V8J0PKwrs7-7">
          <mxGeometry relative="1" as="geometry" />
        </mxCell>
        <mxCell id="9jsHnKphA8V8J0PKwrs7-4" value="" style="rhombus;whiteSpace=wrap;html=1;fillColor=#FFFFFF;" vertex="1" parent="1">
          <mxGeometry x="235" y="230" width="40" height="40" as="geometry" />
        </mxCell>
        <mxCell id="9jsHnKphA8V8J0PKwrs7-10" value="" style="edgeStyle=orthogonalEdgeStyle;rounded=0;orthogonalLoop=1;jettySize=auto;html=1;" edge="1" parent="1" source="9jsHnKphA8V8J0PKwrs7-7" target="9jsHnKphA8V8J0PKwrs7-9">
          <mxGeometry relative="1" as="geometry" />
        </mxCell>
        <mxCell id="9jsHnKphA8V8J0PKwrs7-7" value="Select option to be modified&amp;nbsp;" style="rounded=1;whiteSpace=wrap;html=1;fillColor=#FFFFFF;arcSize=50;" vertex="1" parent="1">
          <mxGeometry x="187.5" y="300" width="135" height="40" as="geometry" />
        </mxCell>
        <mxCell id="9jsHnKphA8V8J0PKwrs7-13" style="edgeStyle=orthogonalEdgeStyle;rounded=0;orthogonalLoop=1;jettySize=auto;html=1;exitX=0;exitY=0.5;exitDx=0;exitDy=0;entryX=0.5;entryY=0;entryDx=0;entryDy=0;" edge="1" parent="1" source="9jsHnKphA8V8J0PKwrs7-9" target="9jsHnKphA8V8J0PKwrs7-11">
          <mxGeometry relative="1" as="geometry" />
        </mxCell>
        <mxCell id="9jsHnKphA8V8J0PKwrs7-14" style="edgeStyle=orthogonalEdgeStyle;rounded=0;orthogonalLoop=1;jettySize=auto;html=1;exitX=1;exitY=0.5;exitDx=0;exitDy=0;" edge="1" parent="1" source="9jsHnKphA8V8J0PKwrs7-9" target="9jsHnKphA8V8J0PKwrs7-12">
          <mxGeometry relative="1" as="geometry" />
        </mxCell>
        <mxCell id="9jsHnKphA8V8J0PKwrs7-9" value="" style="rhombus;whiteSpace=wrap;html=1;fillColor=#FFFFFF;" vertex="1" parent="1">
          <mxGeometry x="235" y="380" width="40" height="40" as="geometry" />
        </mxCell>
        <mxCell id="9jsHnKphA8V8J0PKwrs7-19" value="" style="edgeStyle=orthogonalEdgeStyle;rounded=0;orthogonalLoop=1;jettySize=auto;html=1;" edge="1" parent="1" source="9jsHnKphA8V8J0PKwrs7-11" target="9jsHnKphA8V8J0PKwrs7-15">
          <mxGeometry relative="1" as="geometry" />
        </mxCell>
        <mxCell id="9jsHnKphA8V8J0PKwrs7-11" value="Customize parking slot" style="rounded=1;whiteSpace=wrap;html=1;fillColor=#FFFFFF;arcSize=50;" vertex="1" parent="1">
          <mxGeometry x="30" y="440" width="135" height="40" as="geometry" />
        </mxCell>
        <mxCell id="9jsHnKphA8V8J0PKwrs7-34" value="" style="edgeStyle=orthogonalEdgeStyle;rounded=0;orthogonalLoop=1;jettySize=auto;html=1;" edge="1" parent="1" source="9jsHnKphA8V8J0PKwrs7-12" target="9jsHnKphA8V8J0PKwrs7-33">
          <mxGeometry relative="1" as="geometry" />
        </mxCell>
        <mxCell id="9jsHnKphA8V8J0PKwrs7-12" value="Change Price" style="rounded=1;whiteSpace=wrap;html=1;fillColor=#FFFFFF;arcSize=50;" vertex="1" parent="1">
          <mxGeometry x="360" y="440" width="135" height="40" as="geometry" />
        </mxCell>
        <mxCell id="9jsHnKphA8V8J0PKwrs7-20" value="" style="edgeStyle=orthogonalEdgeStyle;rounded=0;orthogonalLoop=1;jettySize=auto;html=1;" edge="1" parent="1" source="9jsHnKphA8V8J0PKwrs7-15" target="9jsHnKphA8V8J0PKwrs7-16">
          <mxGeometry relative="1" as="geometry" />
        </mxCell>
        <mxCell id="9jsHnKphA8V8J0PKwrs7-27" value="" style="edgeStyle=orthogonalEdgeStyle;rounded=0;orthogonalLoop=1;jettySize=auto;html=1;" edge="1" parent="1" source="9jsHnKphA8V8J0PKwrs7-15" target="9jsHnKphA8V8J0PKwrs7-23">
          <mxGeometry relative="1" as="geometry" />
        </mxCell>
        <mxCell id="9jsHnKphA8V8J0PKwrs7-15" value="" style="rhombus;whiteSpace=wrap;html=1;fillColor=#FFFFFF;" vertex="1" parent="1">
          <mxGeometry x="77.5" y="540" width="40" height="40" as="geometry" />
        </mxCell>
        <mxCell id="9jsHnKphA8V8J0PKwrs7-21" value="" style="edgeStyle=orthogonalEdgeStyle;rounded=0;orthogonalLoop=1;jettySize=auto;html=1;" edge="1" parent="1" source="9jsHnKphA8V8J0PKwrs7-16" target="9jsHnKphA8V8J0PKwrs7-17">
          <mxGeometry relative="1" as="geometry" />
        </mxCell>
        <mxCell id="9jsHnKphA8V8J0PKwrs7-28" value="" style="edgeStyle=orthogonalEdgeStyle;rounded=0;orthogonalLoop=1;jettySize=auto;html=1;" edge="1" parent="1" source="9jsHnKphA8V8J0PKwrs7-16" target="9jsHnKphA8V8J0PKwrs7-24">
          <mxGeometry relative="1" as="geometry" />
        </mxCell>
        <mxCell id="9jsHnKphA8V8J0PKwrs7-16" value="" style="rhombus;whiteSpace=wrap;html=1;fillColor=#FFFFFF;" vertex="1" parent="1">
          <mxGeometry x="77.5" y="660" width="40" height="40" as="geometry" />
        </mxCell>
        <mxCell id="9jsHnKphA8V8J0PKwrs7-22" value="" style="edgeStyle=orthogonalEdgeStyle;rounded=0;orthogonalLoop=1;jettySize=auto;html=1;" edge="1" parent="1" source="9jsHnKphA8V8J0PKwrs7-17" target="9jsHnKphA8V8J0PKwrs7-18">
          <mxGeometry relative="1" as="geometry" />
        </mxCell>
        <mxCell id="9jsHnKphA8V8J0PKwrs7-29" value="" style="edgeStyle=orthogonalEdgeStyle;rounded=0;orthogonalLoop=1;jettySize=auto;html=1;" edge="1" parent="1" source="9jsHnKphA8V8J0PKwrs7-17" target="9jsHnKphA8V8J0PKwrs7-25">
          <mxGeometry relative="1" as="geometry" />
        </mxCell>
        <mxCell id="9jsHnKphA8V8J0PKwrs7-17" value="" style="rhombus;whiteSpace=wrap;html=1;fillColor=#FFFFFF;" vertex="1" parent="1">
          <mxGeometry x="77.5" y="780" width="40" height="40" as="geometry" />
        </mxCell>
        <mxCell id="9jsHnKphA8V8J0PKwrs7-30" value="" style="edgeStyle=orthogonalEdgeStyle;rounded=0;orthogonalLoop=1;jettySize=auto;html=1;" edge="1" parent="1" source="9jsHnKphA8V8J0PKwrs7-18" target="9jsHnKphA8V8J0PKwrs7-26">
          <mxGeometry relative="1" as="geometry" />
        </mxCell>
        <mxCell id="9jsHnKphA8V8J0PKwrs7-18" value="" style="rhombus;whiteSpace=wrap;html=1;fillColor=#FFFFFF;" vertex="1" parent="1">
          <mxGeometry x="77.5" y="890" width="40" height="40" as="geometry" />
        </mxCell>
        <mxCell id="9jsHnKphA8V8J0PKwrs7-41" style="edgeStyle=orthogonalEdgeStyle;rounded=0;orthogonalLoop=1;jettySize=auto;html=1;exitX=1;exitY=0.5;exitDx=0;exitDy=0;" edge="1" parent="1" source="9jsHnKphA8V8J0PKwrs7-23">
          <mxGeometry relative="1" as="geometry">
            <mxPoint x="320" y="680" as="targetPoint" />
          </mxGeometry>
        </mxCell>
        <mxCell id="9jsHnKphA8V8J0PKwrs7-23" value="Disable Slots" style="rounded=1;whiteSpace=wrap;html=1;fillColor=#FFFFFF;arcSize=50;" vertex="1" parent="1">
          <mxGeometry x="140" y="540" width="135" height="40" as="geometry" />
        </mxCell>
        <mxCell id="9jsHnKphA8V8J0PKwrs7-38" style="edgeStyle=orthogonalEdgeStyle;rounded=0;orthogonalLoop=1;jettySize=auto;html=1;exitX=1;exitY=0.5;exitDx=0;exitDy=0;entryX=0;entryY=0.5;entryDx=0;entryDy=0;" edge="1" parent="1" source="9jsHnKphA8V8J0PKwrs7-24" target="9jsHnKphA8V8J0PKwrs7-35">
          <mxGeometry relative="1" as="geometry">
            <mxPoint x="330" y="680.0769230769231" as="targetPoint" />
          </mxGeometry>
        </mxCell>
        <mxCell id="9jsHnKphA8V8J0PKwrs7-24" value="Cancel Bookings" style="rounded=1;whiteSpace=wrap;html=1;fillColor=#FFFFFF;arcSize=50;" vertex="1" parent="1">
          <mxGeometry x="140" y="660" width="135" height="40" as="geometry" />
        </mxCell>
        <mxCell id="9jsHnKphA8V8J0PKwrs7-37" style="edgeStyle=orthogonalEdgeStyle;rounded=0;orthogonalLoop=1;jettySize=auto;html=1;exitX=1;exitY=0.5;exitDx=0;exitDy=0;" edge="1" parent="1" source="9jsHnKphA8V8J0PKwrs7-25">
          <mxGeometry relative="1" as="geometry">
            <mxPoint x="430" y="800.0769230769231" as="targetPoint" />
          </mxGeometry>
        </mxCell>
        <mxCell id="9jsHnKphA8V8J0PKwrs7-25" value="Add new Slots" style="rounded=1;whiteSpace=wrap;html=1;fillColor=#FFFFFF;arcSize=50;" vertex="1" parent="1">
          <mxGeometry x="135" y="780" width="135" height="40" as="geometry" />
        </mxCell>
        <mxCell id="9jsHnKphA8V8J0PKwrs7-36" style="edgeStyle=orthogonalEdgeStyle;rounded=0;orthogonalLoop=1;jettySize=auto;html=1;exitX=1;exitY=0.5;exitDx=0;exitDy=0;entryX=0.5;entryY=1;entryDx=0;entryDy=0;" edge="1" parent="1" source="9jsHnKphA8V8J0PKwrs7-26" target="9jsHnKphA8V8J0PKwrs7-35">
          <mxGeometry relative="1" as="geometry" />
        </mxCell>
        <mxCell id="9jsHnKphA8V8J0PKwrs7-26" value="Enable Slots" style="rounded=1;whiteSpace=wrap;html=1;fillColor=#FFFFFF;arcSize=50;" vertex="1" parent="1">
          <mxGeometry x="140" y="890" width="135" height="40" as="geometry" />
        </mxCell>
        <mxCell id="9jsHnKphA8V8J0PKwrs7-40" value="" style="edgeStyle=orthogonalEdgeStyle;rounded=0;orthogonalLoop=1;jettySize=auto;html=1;" edge="1" parent="1" source="9jsHnKphA8V8J0PKwrs7-33" target="9jsHnKphA8V8J0PKwrs7-35">
          <mxGeometry relative="1" as="geometry" />
        </mxCell>
        <mxCell id="9jsHnKphA8V8J0PKwrs7-33" value="Sign out From system" style="rounded=1;whiteSpace=wrap;html=1;fillColor=#FFFFFF;arcSize=50;" vertex="1" parent="1">
          <mxGeometry x="360" y="540" width="135" height="40" as="geometry" />
        </mxCell>
        <mxCell id="9jsHnKphA8V8J0PKwrs7-35" value="" style="ellipse;html=1;shape=endState;fillColor=#000000;strokeColor=#000000;" vertex="1" parent="1">
          <mxGeometry x="412.5" y="665" width="30" height="30" as="geometry" />
        </mxCell>
      </root>
    </mxGraphModel>
  </diagram>
</mxfile>
